<svg xmlns="http://www.w3.org/2000/svg" xmlns:xlink="http://www.w3.org/1999/xlink" width="215.775" height="232.575" viewBox="0 0 215.775 232.575">
  <defs>
    <clipPath id="clip-path">
      <path id="Path_25512" data-name="Path 25512" d="M78.518,161.82a17.363,17.363,0,1,0,17.358,17.368A17.361,17.361,0,0,0,78.518,161.82Zm0,15.2a2.413,2.413,0,1,1-2.4,2.413A2.42,2.42,0,0,1,78.518,177.017Zm-9.211,4.711.021.053a9.154,9.154,0,0,0,.906,2.308v.021a.232.232,0,0,1,.032.053l4.173,7.451a13.083,13.083,0,0,1-9-12.425c0-.253.011-.5.021-.738a17.907,17.907,0,0,0,3.847,3.278h0Zm13.11,9.938,4.216-7.5a.178.178,0,0,0,.021-.053c.011-.011.011-.011.011-.021a9.406,9.406,0,0,0,.9-2.266,1.139,1.139,0,0,0,.158-.084,17.473,17.473,0,0,0,3.857-3.288c.011.242.021.485.021.738A13.069,13.069,0,0,1,82.417,191.666Zm5-15.071-.021-.084a9.372,9.372,0,0,0-17.874-.01v-.011h-.011a13.3,13.3,0,0,1-2.572-3.394,13.093,13.093,0,0,1,23.165,0,13.3,13.3,0,0,1-2.572,3.394,1.045,1.045,0,0,0-.116.105Zm-8.969,13.079-.379-.7-2.719-4.837-1.2-2.161a.228.228,0,0,1-.032-.053,5.065,5.065,0,0,1-.632-2.456c0-.116,0-.232.011-.348a4.965,4.965,0,0,1,9.917,0c.011.116.011.232.011.348a5.065,5.065,0,0,1-.632,2.456.229.229,0,0,1-.032.053l-1.212,2.161-2.709,4.837Z" transform="translate(-61.16 -161.82)" fill="#fff" clip-rule="evenodd"/>
    </clipPath>
  </defs>
  <g id="Layer_x0020_1" transform="translate(0 0.002)">
    <g id="_1768896641360" transform="translate(0 -0.002)">
      <g id="Group_54515" data-name="Group 54515" transform="translate(0 160.563)">
        <path id="Path_25508" data-name="Path 25508" d="M35.79,174.672a22.132,22.132,0,0,1-3.056,11.256,22.793,22.793,0,0,1-3.488,4.521,22.245,22.245,0,0,1-15.8,6.566H0V152.35H13.448a22.453,22.453,0,0,1,5.933.78,22.7,22.7,0,0,1,5.343,2.266,22.217,22.217,0,0,1,4.521,3.509,23.038,23.038,0,0,1,3.488,4.511,22.455,22.455,0,0,1,2.255,5.322,22.206,22.206,0,0,1,.8,5.933Zm-8.948,0a13.037,13.037,0,0,0-1.043-5.2,13.414,13.414,0,0,0-2.867-4.258,13.785,13.785,0,0,0-4.268-2.877,12.93,12.93,0,0,0-5.217-1.054H8.99v26.78h4.458A13.345,13.345,0,0,0,25.8,179.888a13.1,13.1,0,0,0,1.043-5.217ZM49.3,197.014H40.807V163.648h2.045l2.814,3.952a14.985,14.985,0,0,1,10.086-3.889h7.5v8.473h-7.5a6.29,6.29,0,0,0-2.519.506,6.157,6.157,0,0,0-2.066,1.37A6.7,6.7,0,0,0,49.8,176.1a6.545,6.545,0,0,0-.5,2.519Zm64.941,12.7h-8.558V163.648h2.055l3.394,4.015a23.514,23.514,0,0,1,2.529-2.045,19.932,19.932,0,0,1,2.846-1.676,17.455,17.455,0,0,1,3.067-1.107,13.207,13.207,0,0,1,3.2-.4,17.423,17.423,0,0,1,6.629,1.265,16.48,16.48,0,0,1,5.406,3.562,16.731,16.731,0,0,1,3.668,5.565,18.65,18.65,0,0,1,1.338,7.209,19.4,19.4,0,0,1-1.338,7.4A16.312,16.312,0,0,1,134.814,193a15.807,15.807,0,0,1-5.406,3.509,18.016,18.016,0,0,1-6.629,1.212,9.982,9.982,0,0,1-2.224-.242,15.68,15.68,0,0,1-2.171-.674,20.074,20.074,0,0,1-2.129-.938c-.7-.358-1.36-.727-2.013-1.1Zm17.041-29.678a10.191,10.191,0,0,0-.664-3.794,8.412,8.412,0,0,0-1.823-2.856,7.844,7.844,0,0,0-2.709-1.792,8.754,8.754,0,0,0-3.309-.622,8.609,8.609,0,0,0-3.288.622,8.013,8.013,0,0,0-2.687,1.792,8.356,8.356,0,0,0-1.823,2.856,10.189,10.189,0,0,0-.674,3.794,9.845,9.845,0,0,0,.674,3.71A8.562,8.562,0,0,0,116.8,186.6a8.127,8.127,0,0,0,2.687,1.834,8.259,8.259,0,0,0,3.288.664,8.4,8.4,0,0,0,3.309-.664A8.057,8.057,0,0,0,128.8,186.6a8.731,8.731,0,0,0,1.823-2.856A10.054,10.054,0,0,0,131.284,180.036Zm49.364-.875a17.54,17.54,0,0,1-1.4,6.966,17.937,17.937,0,0,1-9.517,9.475,17.862,17.862,0,0,1-13.922,0,17.86,17.86,0,0,1-9.475-9.475,17.366,17.366,0,0,1-1.412-6.966V152.35h8.916v26.811a8.658,8.658,0,0,0,.7,3.457,9.1,9.1,0,0,0,1.918,2.835,8.911,8.911,0,0,0,2.846,1.918,9.016,9.016,0,0,0,6.945,0,8.911,8.911,0,0,0,2.846-1.918,9.1,9.1,0,0,0,1.918-2.835,8.658,8.658,0,0,0,.7-3.457V152.35h8.948v26.811Zm24.535,17.853H185.749v-8.473h19.434a2.013,2.013,0,0,0,1.5-.622,2.04,2.04,0,0,0,.632-1.5,1.152,1.152,0,0,0-.632-1.18,3.577,3.577,0,0,0-1.5-.285h-8.842a10.284,10.284,0,0,1-4.142-.843,10.521,10.521,0,0,1-5.617-5.67,10.718,10.718,0,0,1,0-8.284,10.381,10.381,0,0,1,5.617-5.617,10.278,10.278,0,0,1,4.142-.833h17.221v8.473H196.341a2.141,2.141,0,0,0-2.118,2.118,2.132,2.132,0,0,0,.622,1.539,2.011,2.011,0,0,0,1.5.643h8.842a11.552,11.552,0,0,1,4.11.727,10.473,10.473,0,0,1,3.372,2.045,9.647,9.647,0,0,1,2.266,3.151,9.549,9.549,0,0,1,.843,4.015,10.148,10.148,0,0,1-.843,4.121,11.05,11.05,0,0,1-2.266,3.362,10.556,10.556,0,0,1-7.483,3.109Z" transform="translate(0 -152.35)" fill="#fff"/>
        <path id="Path_25509" data-name="Path 25509" d="M78.518,161.82a17.363,17.363,0,1,0,17.358,17.368A17.361,17.361,0,0,0,78.518,161.82Zm0,15.2a2.413,2.413,0,1,1-2.4,2.413A2.42,2.42,0,0,1,78.518,177.017Zm-9.211,4.711.021.053a9.154,9.154,0,0,0,.906,2.308v.021a.232.232,0,0,1,.032.053l4.173,7.451a13.083,13.083,0,0,1-9-12.425c0-.253.011-.5.021-.738a17.907,17.907,0,0,0,3.847,3.278h0Zm13.11,9.938,4.216-7.5a.178.178,0,0,0,.021-.053c.011-.011.011-.011.011-.021a9.406,9.406,0,0,0,.9-2.266,1.139,1.139,0,0,0,.158-.084,17.473,17.473,0,0,0,3.857-3.288c.011.242.021.485.021.738A13.069,13.069,0,0,1,82.417,191.666Zm5-15.071-.021-.084a9.372,9.372,0,0,0-17.874-.01v-.011h-.011a13.3,13.3,0,0,1-2.572-3.394,13.093,13.093,0,0,1,23.165,0,13.3,13.3,0,0,1-2.572,3.394,1.045,1.045,0,0,0-.116.105Zm-8.969,13.079-.379-.7-2.719-4.837-1.2-2.161a.228.228,0,0,1-.032-.053,5.065,5.065,0,0,1-.632-2.456c0-.116,0-.232.011-.348a4.965,4.965,0,0,1,9.917,0c.011.116.011.232.011.348a5.065,5.065,0,0,1-.632,2.456.229.229,0,0,1-.032.053l-1.212,2.161-2.709,4.837Z" transform="translate(3.296 -151.84)" fill="#fff" fill-rule="evenodd"/>
        <g id="Group_54514" data-name="Group 54514" transform="translate(64.456 9.98)" clip-path="url(#clip-path)">
          <g id="Group_54513" data-name="Group 54513" transform="translate(4.3 11.277)">
            <g id="Group_54512" data-name="Group 54512">
              <path id="_1" data-name="1" d="M80.658,183.008l-2.709,4.837-.379.685c.769,1.18,1.149,2.076,3.141,2.234.274-.063.559-.148.822-.232l3.067-5.459-3.847-2.224-.095.158Z" transform="translate(-64.575 -171.963)" fill="#fff" fill-rule="evenodd"/>
              <g id="Group_54511" data-name="Group 54511">
                <path id="Path_25510" data-name="Path 25510" d="M66.715,172.52a13.074,13.074,0,0,0-1.475,5.354,17.909,17.909,0,0,0,3.847,3.278,9.931,9.931,0,0,1-.263-2.255,9.518,9.518,0,0,1,.464-2.961.033.033,0,0,1,.011-.021h-.011A13.3,13.3,0,0,1,66.715,172.52Z" transform="translate(-65.24 -172.52)" fill="#fff" fill-rule="evenodd"/>
                <path id="Path_25511" data-name="Path 25511" d="M86.07,176.019a9.608,9.608,0,0,1,.443,2.877,9.232,9.232,0,0,1-.285,2.308c0,.021,0,.032-.011.042a1.155,1.155,0,0,0,.158-.084,17.474,17.474,0,0,0,3.857-3.288,13.074,13.074,0,0,0-1.475-5.354,13.3,13.3,0,0,1-2.572,3.394A1.051,1.051,0,0,0,86.07,176.019Z" transform="translate(-64.117 -172.52)" fill="#fff" fill-rule="evenodd"/>
              </g>
            </g>
          </g>
        </g>
        <path id="Path_25513" data-name="Path 25513" d="M78.518,161.82a17.363,17.363,0,1,0,17.358,17.368A17.361,17.361,0,0,0,78.518,161.82Zm0,15.2a2.413,2.413,0,1,1-2.4,2.413A2.42,2.42,0,0,1,78.518,177.017Zm-9.211,4.711.021.053a9.154,9.154,0,0,0,.906,2.308v.021a.232.232,0,0,1,.032.053l4.173,7.451a13.083,13.083,0,0,1-9-12.425c0-.253.011-.5.021-.738a17.907,17.907,0,0,0,3.847,3.278h0Zm13.11,9.938,4.216-7.5a.178.178,0,0,0,.021-.053c.011-.011.011-.011.011-.021a9.406,9.406,0,0,0,.9-2.266,1.139,1.139,0,0,0,.158-.084,17.473,17.473,0,0,0,3.857-3.288c.011.242.021.485.021.738A13.069,13.069,0,0,1,82.417,191.666Zm5-15.071-.021-.084a9.372,9.372,0,0,0-17.874-.01v-.011h-.011a13.3,13.3,0,0,1-2.572-3.394,13.093,13.093,0,0,1,23.165,0,13.3,13.3,0,0,1-2.572,3.394,1.045,1.045,0,0,0-.116.105Zm-8.969,13.079-.379-.7-2.719-4.837-1.2-2.161a.228.228,0,0,1-.032-.053,5.065,5.065,0,0,1-.632-2.456c0-.116,0-.232.011-.348a4.965,4.965,0,0,1,9.917,0c.011.116.011.232.011.348a5.065,5.065,0,0,1-.632,2.456.229.229,0,0,1-.032.053l-1.212,2.161-2.709,4.837Z" transform="translate(3.296 -151.84)" fill="none" fill-rule="evenodd"/>
      </g>
      <path id="Path_25514" data-name="Path 25514" d="M63.75,89.729C44.706,91.5,18.3,86.883,19.971,62.781,31.237,58.944,63.792,75.543,63.75,89.729Zm51.662,44.959c-.074-4.268-3.257-4.332-6.882-4.342s-6.418.537-6.576,4.395c-.179,4.152,2.645,4.606,6.587,4.606C112.788,139.357,115.5,139.283,115.412,134.688Zm79.8-18.454c-.274-5.944-12.331-5.955-13.005-.443-.474,3.994,2.2,5.333,5.891,5.343C191.577,121.145,195.413,120.808,195.213,116.234Zm-19.35-47.51c.59-4.806-3.193-5.291-7.1-5.28-4.342.011-8.168-.485-9.158,3.225-1.159,4.363,2.192,6.039,6.081,6.018C170.373,72.666,175.305,73.33,175.864,68.725ZM180.891.58c-3.383,2.087-3.531,6.366-.474,8.168,1.749,1.022,10.138,1.043,12.057.221,3.478-1.5,3.025-6.661.316-8.157-1.317-.717-10.571-1.043-11.9-.232ZM26.664,45.9c-3.109,1.244-13.49,1.76-17.653,12.52C7.651,61.959,7.5,62.7,7.451,67c-.063,4.648-.611,58.47.559,60.588.59,1.075,1.655,1.623,2.266,2.487,1.033,1.454.506,2.624.685,4.627.854,9.6,14.354,7.008,23.734,7.008,4.532,0,13.247.443,18.306.021.011.063.285.021,1.412-.158.137-.021.274-.042.4-.063,5.269-2.445,5.217-3.394,5.638-9.685,13.954-.369,10.339,1.4,24.334-3.33,5.533-1.865,9.991-3.847,15.671-5.407a55.017,55.017,0,0,0,5.48-1.391c14.723-.843,12.425-2.382,18.686,3.942a22.008,22.008,0,0,1,3.8,4.216c-2.466,1.56-6.566.095-5.944,5.691.443,4.068,3.689,4,7.588,3.994,8.874-.011,66.016.432,69.441-.074,2.93-.432,5.217-3.9,3.394-6.871s-5.586-2.266-9.1-2.266l-46.15.011c-5.849.021-5,.474-8.41-3.056-1.107-1.138-5.3-4.785-5.544-6.06,8.821-.4,18.253-.042,27.138-.063,4.469,0,9.3.253,9-4.922-.285-4.869-4.985-4.332-9.443-4.342-18.306-.021-36.623.032-54.94.021-4.542,0-9.085.011-13.627,0-3.952-.011-10.233.885-12.457-1.3a4.651,4.651,0,0,1-1.444-2.9,10.084,10.084,0,0,1,.095-1.328,4.942,4.942,0,0,1,4.584-3.678c3.889-.348,9.527,0,13.616,0q27.475-.016,54.95.011c5.986.011,58.976.306,61.073-.148a4.575,4.575,0,0,0,1.623-8.168c-1.581-1.233-3.931-.917-6-.906l-82.636-.011c-4.511-.011-24.24.622-26.769-.58-3.457-1.634-2.919-7.282.917-8.294,3.488-.906,11.013.98,13.416-.6,1.518-2.108.263-8.273.6-11.287,9.011-.211,18.18-.032,27.222-.032,4.469-.011,9.085.169,8.937-4.816-.148-5.175-5.449-4.405-9.822-4.416l-48.374.011c-3.72-.021-3-.369-5.132-1.76-2.371-7.651,2.234-7.43,8.674-7.43h85.713c2.466-.011,5.923.411,7.862-.548a4.643,4.643,0,0,0,1.929-6.207c-1.781-3.9-10.107-2.445-14.628-2.445L72.94,45.075c-11.1.032-23.333.443-34.294-.074a34.948,34.948,0,0,1,1.591-7.272c1.412-4.922,6.165-15.007,9.612-18.443,2.846-2.835,5.491-5.143,9.5-6.777A46.324,46.324,0,0,1,72.487,9.559l5.786-.169c6.123-.095,12.341.032,18.4.032,7.978-.011,6.207-1,12.773,5.67,1.254,1.265,2.276,1.728,2.666,3.478-2.55.126-4.521-.39-6.545,1.033a4.681,4.681,0,0,0-1.17,5.786c1.739,3.636,8.579,2.456,12.931,2.445q15.16-.016,30.331.011c20.361.021,40.754.074,61.115,0,7.124-.021,6.777-5.343,4.953-7.535-2.371-2.867-9.517-1.676-13.764-1.686l-60.652.011c-3.931,0-11.856,1.223-14.344-1.043-1.844-1.676-6.777-6.239-7.314-8.115l48.774-.232c3.531-.927,6.819-9.064-3.826-9.032C149.579.242,76.787-.464,74.163.538a38.827,38.827,0,0,0-9.2.959,34.75,34.75,0,0,0-13.68,6.471l-5.438,5.1a39.124,39.124,0,0,0-4.152,5.923c-5.406,10.138-5.649,13.933-7.62,17.916-.97,1.939-.864,2.94-1.57,3.91-2.276-.474-1.086,0-1.981-1.328a13.214,13.214,0,0,1-1.159-2.382,43.634,43.634,0,0,1-1.676-5.175c-.643-2.614-.664-4.11-2.477-5.533l-1.328-.854a7.4,7.4,0,0,0-2.793-.769C13.269,23.839-.074,27.665,0,31.4c.063,3.056,8.568,2.656,11.34,3.984,3.952,1.9,7.451,1.075,13.5,7.166,1.338,1.36,1.855,1.317,1.823,3.351Z" transform="translate(0 0.002)" fill="#fff" fill-rule="evenodd"/>
      <path id="Path_25515" data-name="Path 25515" d="M2.192,218.221v2.656H3.257v-2.656l2.213-3.615h-1.2l-1.507,2.624-1.507-2.624H0Zm4.405-.485A2.1,2.1,0,1,1,8.695,220,2.094,2.094,0,0,1,6.6,217.737Zm-1.086,0a3.142,3.142,0,0,0,3.183,3.278,3.268,3.268,0,0,0,0-6.534,3.131,3.131,0,0,0-3.183,3.257Zm9.759,3.278a2.184,2.184,0,0,0,2.34-2.319v-4.089H16.557v4.026A1.211,1.211,0,0,1,15.271,220a1.211,1.211,0,0,1-1.286-1.37v-4.026H12.931V218.7a2.189,2.189,0,0,0,2.34,2.319Zm6.945-.137h1.2L21.995,218.3a1.765,1.765,0,0,0,1.423-1.781,1.86,1.86,0,0,0-1.971-1.908h-2.4v6.271h1.075V218.4h.78l1.317,2.477Zm-2.1-3.415v-1.918h1.138a.965.965,0,1,1,0,1.918H20.119Zm10.528,3.415h1.2L30.437,218.3a1.766,1.766,0,0,0,1.412-1.781,1.857,1.857,0,0,0-1.96-1.908H27.475v6.271H28.55V218.4h.78Zm-2.1-3.415v-1.918h1.138a.965.965,0,1,1,0,1.918H28.55Zm5.512,3.415v-6.271H32.976v6.271Zm2.561-.97v-4.332H37.74a2.174,2.174,0,0,1,0,4.332Zm1.149.97a3.137,3.137,0,0,0,.011-6.271H35.558v6.271Zm8.041,0v-.991h-2.8v-1.665h2.54v-.959h-2.54V215.6h2.8v-.991H41.945v6.271Zm10.012-1.655-1.5-4.616H53.222l-1.465,4.584L50.5,214.606H49.386l1.781,6.271h1.086l1.518-4.743,1.528,4.743h1.1l1.76-6.271h-1.1Zm4.268,1.655v-6.271H59.018v6.271Zm6.007-5.27v-1H60.957v1h2.034v5.27h1.064v-5.27Zm5.944,5.27v-6.271H70.969V217.2h-2.94v-2.593H66.965v6.271h1.064V218.2h2.94v2.677Zm7.219.137a2.812,2.812,0,0,0,2.835-2.087l-.97-.316a1.87,1.87,0,0,1-1.865,1.381,2.269,2.269,0,0,1-.011-4.521,1.744,1.744,0,0,1,1.823,1.37l1-.327a2.727,2.727,0,0,0-2.824-2.034,3.269,3.269,0,0,0,.011,6.534Zm4.553-3.278a2.1,2.1,0,1,1,2.1,2.266A2.094,2.094,0,0,1,83.816,217.737Zm-1.086,0a3.189,3.189,0,1,0,3.183-3.257A3.142,3.142,0,0,0,82.731,217.737Zm14.4,3.141v-6.271H95.683l-2.013,4.785-2.034-4.785H90.224v6.271h1.033v-4.595l1.939,4.595h.917l1.96-4.616v4.616Zm2.561,0v-2.529h2.54v-.98h-2.54v-1.76h2.835v-1h-3.9v6.271h1.064Zm4.521-3.141a2.108,2.108,0,1,1,2.1,2.266A2.094,2.094,0,0,1,104.209,217.737Zm-1.086,0a3.189,3.189,0,1,0,3.183-3.257A3.142,3.142,0,0,0,103.124,217.737Zm10.665,3.141h1.2l-1.412-2.582a1.766,1.766,0,0,0,1.412-1.781,1.851,1.851,0,0,0-1.96-1.908h-2.4v6.271h1.064V218.4h.78Zm-2.1-3.415v-1.918h1.138a.966.966,0,1,1,0,1.918h-1.138Zm8.937-1.855v-1h-5.143v1h2.034v5.27h1.064v-5.27h2.045Zm4.5,2.129a2.108,2.108,0,1,1,2.1,2.266A2.094,2.094,0,0,1,125.129,217.737Zm-1.086,0a3.189,3.189,0,1,0,3.183-3.257A3.142,3.142,0,0,0,124.044,217.737Zm9.759,3.278a2.192,2.192,0,0,0,2.35-2.319v-4.089h-1.064v4.026a1.283,1.283,0,1,1-2.561,0v-4.026h-1.054V218.7A2.181,2.181,0,0,0,133.8,221.014Zm6.945-.137h1.2l-1.412-2.582a1.766,1.766,0,0,0,1.412-1.781,1.851,1.851,0,0,0-1.96-1.908h-2.4v6.271h1.064V218.4h.78Zm-2.1-3.415v-1.918h1.138a.966.966,0,1,1,0,1.918h-1.138Zm9.622,3.552a2.192,2.192,0,0,0,2.35-2.319v-4.089h-1.064v4.026a1.283,1.283,0,1,1-2.561,0v-4.026h-1.054V218.7A2.181,2.181,0,0,0,148.273,221.014Zm7.715-.137v-1.012H153.11v-5.259h-1.054v6.271h3.931Zm4.858-5.27v-1H155.7v1h2.034v5.27H158.8v-5.27h2.045Zm1.939,5.27v-6.271H161.71v6.271Zm8.4,0v-6.271h-1.433l-2.013,4.785-2.034-4.785h-1.412v6.271h1.033v-4.595l1.939,4.595h.917l1.95-4.616v4.616Zm5.8,0h1.159l-2.445-6.271h-1.223l-2.445,6.271h1.128l.58-1.57h2.656Zm-1.918-5.122.949,2.572H174.1Zm7.841-.148v-1h-5.132v1h2.023v5.27h1.064v-5.27Zm4.743,5.27v-.991h-2.814v-1.665h2.55v-.959h-2.55V215.6h2.814v-.991h-3.878v6.271h3.878Zm9.77,0V217.7h-3.077v.927h2.076a1.66,1.66,0,0,1-1.8,1.4,2.3,2.3,0,0,1,.011-4.574,1.821,1.821,0,0,1,1.834,1.307l1-.379a2.826,2.826,0,0,0-2.835-1.908,3.118,3.118,0,0,0-3.151,3.257,3.068,3.068,0,0,0,3.077,3.278,2.178,2.178,0,0,0,1.929-.938l.074.8Zm1.981-3.141a2.108,2.108,0,1,1,2.1,2.266A2.094,2.094,0,0,1,199.4,217.737Zm-1.086,0a3.189,3.189,0,1,0,3.183-3.257A3.142,3.142,0,0,0,198.312,217.737Zm11.519,3.141h1.159l-2.434-6.271h-1.233l-2.445,6.271h1.128l.58-1.57h2.656l.59,1.57Zm-1.918-5.122.959,2.572h-1.908Zm7.852,5.122v-1.012H212.9v-5.259h-1.064v6.271h3.931Z" transform="translate(0 11.561)" fill="#fff"/>
    </g>
  </g>
</svg>
